<?xml version="1.0" encoding="UTF-8"?>
<svg xmlns="http://www.w3.org/2000/svg" version="1.1" viewBox="0 0 1022.88098 325.60784">
  <!-- Generator: Adobe Illustrator 30.0.0, SVG Export Plug-In . SVG Version: 2.1.1 Build 123)  -->
  <defs>
    <style>
      .st0 {
        fill: #231f20;
      }
    </style>
  </defs>
  <g id="Layer_2">
    <rect class="st0" x="241.27342" y="13.58693" width="120.14875" height="119.37359" rx="26.549" ry="26.549"/>
    <rect class="st0" x="11.44049" y="192.64732" width="120.14875" height="119.37359" rx="26.549" ry="26.549"/>
    <path class="st0" d="M154.14981,278.36559l-.163-37.33655,76.01144-.3303c14.90202-.06434,21.78037-10.41082,23.24848-20.06882,1.46811-9.66015-2.02683-21.5809-16.23715-26.06995l-115.53032-36.49364c-27.64959-8.73467-43.66476-34.81534-38.94407-63.42473,4.71962-28.60831,28.2126-48.16239,57.25309-47.55219l80.94983,1.70618-.78714,37.32797-80.94983-1.70618c-16.10417-.3925-19.16908,13.5197-19.62807,16.30257-.45899,2.7818-1.97214,16.90311,13.35133,21.74283l115.53139,36.49364c29.28607,9.25156,46.51733,36.91831,41.90388,67.28214-4.61452,30.36383-29.28607,51.66376-59.99842,51.79674l-76.01144.3303Z"/>
  </g>
  <g id="Layer_3">
    <g>
      <path class="st0" d="M503.53209,115.35921c-5.20264-3.17725-10.94727-5.70752-17.23389-7.5874-6.28662-1.87646-12.57275-3.53955-18.85938-4.98584-6.28662-1.44287-12.03125-2.88916-17.23389-4.33545-5.20312-1.44287-9.396-3.35986-12.57324-5.74463-3.18066-2.38477-4.76953-5.52783-4.76953-9.42969,0-3.32324.93848-6.24951,2.81836-8.77979,1.87646-2.52686,4.98584-4.58643,9.32129-6.17822,4.33594-1.58838,9.89746-2.38428,16.69238-2.38428,6.79102,0,13.72803.9751,20.81055,2.92627,7.0791,1.95117,14.16162,4.95215,21.24414,8.99658l10.83887-26.66406c-7.08301-4.47803-15.24854-7.83789-24.49561-10.08008-9.25049-2.23926-18.64307-3.36035-28.18115-3.36035-14.30762,0-26.19678,2.13428-35.66016,6.39502-9.46729,4.26465-16.5498,9.97217-21.24463,17.12549-4.69775,7.15381-7.04541,15.06641-7.04541,23.7373,0,8.0957,1.62598,14.74121,4.87793,19.94385,3.25146,5.20264,7.47852,9.396,12.68115,12.57324,5.20312,3.18018,10.94775,5.78174,17.23438,7.80371,6.28613,2.02588,12.57275,3.72266,18.85938,5.09473,6.28662,1.375,12.03125,2.81787,17.23389,4.33545s9.39258,3.46826,12.57324,5.85303c3.17725,2.38428,4.76904,5.60205,4.76904,9.64648,0,3.18066-1.0127,5.99854-3.03467,8.45459-2.02539,2.45898-5.16895,4.37256-9.42969,5.74512-4.26465,1.375-9.86377,2.05859-16.80078,2.05859-9.10449,0-18.10107-1.48047-26.98877-4.44385-8.8877-2.96045-16.5835-6.75391-23.08691-11.38086l-11.92285,26.44678c6.79102,5.20312,15.75049,9.42969,26.88037,12.68164,11.12695,3.25195,22.76172,4.87793,34.90137,4.87793,14.44971,0,26.41016-2.16797,35.87695-6.50391,9.46387-4.33496,16.58398-10.04297,21.35254-17.125,4.76953-7.07959,7.1543-14.8833,7.1543-23.41211,0-7.94629-1.62598-14.52441-4.87793-19.72705s-7.47852-9.39258-12.68164-12.57324Z"/>
      <polygon class="st0" points="639.23228 40.35384 598.60936 107.71651 558.15709 40.35384 520.87095 40.35384 579.61802 138.01027 579.61802 192.09896 614.73619 192.09896 614.73619 138.37209 673.70006 40.35384 639.23228 40.35384"/>
      <polygon class="st0" points="790.54674 132.41579 715.10728 40.35384 686.05845 40.35384 686.05845 192.09896 720.744 192.09896 720.744 99.99666 796.39927 192.09896 825.23131 192.09896 825.23131 40.35384 790.54674 40.35384 790.54674 132.41579"/>
      <path class="st0" d="M974.59166,192.09896h36.85254l-67.85254-151.74512h-34.68457l-67.63477,151.74512h35.98535l13.52222-32.5166h70.34216l13.4696,32.5166ZM901.86833,132.91829l24.15118-58.07593,24.05725,58.07593h-48.20844Z"/>
    </g>
    <g>
      <path class="st0" d="M430.35777,242.60384c3.3208-1.7832,5.53467-5.04199,5.53467-9.46973,0-6.8252-5.53467-11.19141-15.86523-11.19141h-20.16992v43.04492h21.39941c11.06885,0,16.84912-4.30469,16.84912-11.68359,0-5.5957-3.13623-9.22363-7.74805-10.7002ZM407.85142,228.21517h11.31445c5.53467,0,8.6709,1.96777,8.6709,5.96484,0,3.93555-3.13623,5.90332-8.6709,5.90332h-11.31445v-11.86816ZM420.765,258.71517h-12.91357v-12.4209h12.91357c6.02637,0,9.28516,1.90625,9.28516,6.20996,0,4.30469-3.25879,6.21094-9.28516,6.21094Z"/>
      <path class="st0" d="M465.96373,247.27767c5.96484-5.5957,7.1333-9.4082,7.1333-13.58984,0-7.625-6.02637-12.36035-15.37305-12.36035-7.07178,0-13.03662,2.64453-16.35693,7.13379l5.5957,4.30371c2.39795-3.07422,5.90332-4.48828,10.08496-4.48828,5.28809,0,7.99365,2.27539,7.99365,6.21094,0,2.39746-.73779,4.91895-4.91943,8.91602l-17.09473,16.23438v5.34961h31.73047v-6.76465h-20.29297l11.49902-10.94531Z"/>
      <path class="st0" d="M512.94615,242.60384c3.32031-1.7832,5.53418-5.04199,5.53418-9.46973,0-6.8252-5.53418-11.19141-15.86523-11.19141h-20.16992v43.04492h21.39941c11.06934,0,16.84961-4.30469,16.84961-11.68359,0-5.5957-3.13672-9.22363-7.74805-10.7002ZM490.43931,228.21517h11.31445c5.53467,0,8.6709,1.96777,8.6709,5.96484,0,3.93555-3.13623,5.90332-8.6709,5.90332h-11.31445v-11.86816ZM503.35289,258.71517h-12.91357v-12.4209h12.91357c6.02588,0,9.28564,1.90625,9.28564,6.20996,0,4.30469-3.25977,6.21094-9.28564,6.21094Z"/>
      <path class="st0" d="M565.03209,221.94271h-18.81641v43.04492h18.81641c13.95898,0,23.49121-8.60938,23.49121-21.52246s-9.53223-21.52246-23.49121-21.52246ZM564.66392,258.22298h-10.4541v-29.5166h10.4541c9.59277,0,15.80371,5.8418,15.80371,14.75879,0,8.91602-6.21094,14.75781-15.80371,14.75781Z"/>
      <rect class="st0" x="596.27232" y="232.15072" width="7.6875" height="32.83691"/>
      <path class="st0" d="M600.14634,217.51497c-2.82812,0-4.91895,2.0293-4.91895,4.6123,0,2.58203,2.09082,4.61133,4.91895,4.61133,2.89062,0,4.91992-2.09082,4.91992-4.7959,0-2.52148-2.09082-4.42773-4.91992-4.42773Z"/>
      <path class="st0" d="M618.78013,241.68197c0-2.15234,2.21387-3.68945,6.8877-3.68945,3.13574,0,6.27148.61426,9.4082,2.45898l2.95117-5.8418c-2.95117-1.7832-7.93262-2.82812-12.29785-2.82812-8.85547,0-14.45117,4.05859-14.45117,10.26953,0,13.09766,20.29297,7.19434,20.29297,13.4668,0,2.27539-2.0293,3.62793-6.8877,3.62793-4.12012,0-8.54785-1.35254-11.4375-3.25879l-2.95215,5.8418c2.95215,2.09082,8.4248,3.68945,13.89746,3.68945,9.22461,0,14.88184-3.99707,14.88184-10.14648,0-12.85254-20.29297-6.94922-20.29297-13.58984Z"/>
      <path class="st0" d="M658.99791,259.08431c-2.95215,0-4.55078-1.72168-4.55078-4.91895v-15.62012h8.79395v-6.14844h-8.79395v-7.50293h-7.68652v7.50293h-5.41113v6.14844h5.41113v15.80371c0,7.25684,4.12012,11.06934,11.31445,11.06934,2.76758,0,5.53418-.73828,7.37891-2.21387l-2.15234-5.47266c-1.16797.92188-2.70508,1.35254-4.30371,1.35254Z"/>
      <path class="st0" d="M679.10728,236.94661v-4.7959h-7.31836v32.83691h7.6875v-15.92676c0-6.70215,3.68945-10.14648,9.53125-10.14648.55273,0,1.10645.06152,1.7832.18457v-7.31738c-5.47266,0-9.46973,1.72168-11.68359,5.16504Z"/>
      <path class="st0" d="M701.18541,217.51497c-2.82812,0-4.91895,2.0293-4.91895,4.6123,0,2.58203,2.09082,4.61133,4.91895,4.61133,2.89062,0,4.91992-2.09082,4.91992-4.7959,0-2.52148-2.09082-4.42773-4.91992-4.42773Z"/>
      <rect class="st0" x="697.31138" y="232.15072" width="7.6875" height="32.83691"/>
      <path class="st0" d="M733.28502,231.78158c-4.18164,0-7.87109,1.41406-10.51465,4.36621v-16.78809h-7.6875v45.62793h7.31836v-4.24316c2.58203,3.13672,6.39453,4.67383,10.88379,4.67383,9.59277,0,16.66504-6.6416,16.66504-16.84961,0-10.20703-7.07227-16.78711-16.66504-16.78711ZM732.42467,258.83822c-5.53516,0-9.77734-3.99707-9.77734-10.26953,0-6.27148,4.24219-10.26855,9.77734-10.26855,5.53418,0,9.71582,3.99707,9.71582,10.26855,0,6.27246-4.18164,10.26953-9.71582,10.26953Z"/>
      <path class="st0" d="M781.37388,248.75326c0,6.58008-3.62793,9.90039-8.97754,9.90039-4.8584,0-7.68652-2.82812-7.68652-8.79297v-17.70996h-7.68652v18.75488c0,9.90039,5.71875,14.5127,14.14258,14.5127,4.24316,0,8.11719-1.59863,10.57715-4.6123v4.18164h7.31738v-32.83691h-7.68652v16.60254Z"/>
      <path class="st0" d="M812.4315,259.08431c-2.95215,0-4.55078-1.72168-4.55078-4.91895v-15.62012h8.79395v-6.14844h-8.79395v-7.50293h-7.68652v7.50293h-5.41113v6.14844h5.41113v15.80371c0,7.25684,4.12012,11.06934,11.31445,11.06934,2.76758,0,5.53418-.73828,7.37891-2.21387l-2.15234-5.47266c-1.16797.92188-2.70508,1.35254-4.30371,1.35254Z"/>
      <path class="st0" d="M838.87486,231.78158c-10.08496,0-17.46387,6.94824-17.46387,16.78711s7.37891,16.84961,17.46387,16.84961c10.20801,0,17.52539-7.01074,17.52539-16.84961s-7.31738-16.78711-17.52539-16.78711ZM838.87486,258.83822c-5.53418,0-9.71582-3.99707-9.71582-10.26953,0-6.27148,4.18164-10.26855,9.71582-10.26855,5.5957,0,9.77734,3.99707,9.77734,10.26855,0,6.27246-4.18164,10.26953-9.77734,10.26953Z"/>
      <path class="st0" d="M871.09849,236.94661v-4.7959h-7.31836v32.83691h7.6875v-15.92676c0-6.70215,3.68945-10.14648,9.53125-10.14648.55273,0,1.10645.06152,1.7832.18457v-7.31738c-5.47266,0-9.46973,1.72168-11.68359,5.16504Z"/>
      <path class="st0" d="M927.42759,221.32747c-13.34375,0-23.18262,9.4082-23.18262,22.1377,0,12.72852,9.83887,22.1377,23.18262,22.1377s23.18262-9.34766,23.18262-22.1377c0-12.79102-9.83887-22.1377-23.18262-22.1377ZM927.42759,258.59212c-8.6709,0-15.12695-6.33398-15.12695-15.12695,0-8.79395,6.45605-15.12695,15.12695-15.12695,8.66992,0,15.12695,6.33301,15.12695,15.12695,0,8.79297-6.45703,15.12695-15.12695,15.12695Z"/>
      <path class="st0" d="M964.32603,233.81087c0-3.25879,2.70605-5.8418,9.34766-5.8418,3.75098,0,7.99414,1.10645,11.86816,3.38184l2.52051-6.21094c-3.75098-2.45898-9.16211-3.8125-14.32715-3.8125-11.80664,0-17.3418,5.90332-17.3418,12.85254,0,15.98828,25.58105,9.90039,25.58105,19.18555,0,3.19727-2.82812,5.5957-9.53125,5.5957-5.28809,0-10.76074-1.96777-14.2041-4.73535l-2.76758,6.21094c3.56641,3.0752,10.26953,5.16602,16.97168,5.16602,11.80664,0,17.40234-5.90332,17.40234-12.79102,0-15.80371-25.51953-9.83887-25.51953-19.00098Z"/>
    </g>
  </g>
</svg>