<?xml version="1.0" encoding="UTF-8"?>
<svg id="Layer_2" xmlns="http://www.w3.org/2000/svg" version="1.1" viewBox="0 0 500 500">
  <!-- Generator: Adobe Illustrator 30.0.0, SVG Export Plug-In . SVG Version: 2.1.1 Build 123)  -->
  <defs>
    <style>
      .st0 {
        fill: #fff;
      }
    </style>
  </defs>
  <rect class="st0" x="312.67996" y="79.45736" width="137.32004" height="136.43411" rx="26.549" ry="26.549"/>
  <rect class="st0" x="50" y="284.10853" width="137.32004" height="136.43411" rx="26.549" ry="26.549"/>
  <path class="st0" d="M213.1049,382.07739l-.1863-42.67257,86.87477-.3775c17.03177-.07354,24.89315-11.89871,26.57108-22.937,1.67793-11.04074-2.3165-24.66518-18.55772-29.79579l-132.04156-41.7092c-31.60119-9.983-49.90519-39.79105-44.50984-72.4892,5.39413-32.69693,32.24466-55.04561,65.43553-54.34821l92.51893,1.95002-.89963,42.66277-92.51893-1.95002c-18.40573-.44859-21.90867,15.45189-22.43325,18.63248-.52458,3.17936-2.25399,19.31885,15.25946,24.85025l132.04279,41.7092c33.47154,10.57377,53.16545,42.19457,47.89266,76.8979-5.27401,34.70333-33.47154,59.04739-68.57322,59.19937l-86.87477.3775Z"/>
</svg>