<?xml version="1.0" encoding="UTF-8"?>
<svg xmlns="http://www.w3.org/2000/svg" version="1.1" viewBox="0 0 1000 298.43399">
  <!-- Generator: Adobe Illustrator 30.0.0, SVG Export Plug-In . SVG Version: 2.1.1 Build 123)  -->
  <g id="Layer_2">
    <rect x="229.83293" width="120.14875" height="119.37359" rx="26.549" ry="26.549" style="fill: #0a2740;"/>
    <rect y="179.06039" width="120.14875" height="119.37359" rx="26.549" ry="26.549" style="fill: #0a2740;"/>
    <path d="M142.70931,264.77866l-.163-37.33655,76.01144-.3303c14.90202-.06434,21.78037-10.41082,23.24848-20.06882,1.46811-9.66015-2.02683-21.5809-16.23715-26.06995l-115.53032-36.49364c-27.64959-8.73467-43.66476-34.81534-38.94407-63.42473,4.71962-28.60831,28.2126-48.16239,57.25309-47.55219l80.94983,1.70618-.78714,37.32797-80.94983-1.70618c-16.10417-.3925-19.16908,13.5197-19.62807,16.30257-.45899,2.7818-1.97214,16.90311,13.35133,21.74283l115.53139,36.49364c29.28607,9.25156,46.51733,36.91831,41.90388,67.28214-4.61452,30.36383-29.28607,51.66376-59.99842,51.79674l-76.01144.3303Z" style="fill: #02c0c9;"/>
  </g>
  <g id="Layer_3">
    <g>
      <path d="M419.9044,229.82496c-.49548-.22662-1.00842-.42194-1.53638-.59039,1.64905-.87146,2.98761-2.06091,3.99646-3.59192,1.06598-1.61932,1.59894-3.57538,1.59894-5.87244,0-3.40167-1.35333-6.11908-4.05902-8.14807-2.70563-2.02899-6.6413-3.04346-11.80707-3.04346h-20.17072v43.04596h21.40076c5.57538,0,9.77814-1.02521,12.60712-3.07562,2.82788-2.04828,4.24237-4.91803,4.24237-8.60919,0-2.49872-.56409-4.58984-1.69116-6.27136-1.12817-1.68152-2.65417-2.96198-4.5813-3.84351ZM407.23619,214.85004c2.78827,0,4.92981.49329,6.42688,1.47559,1.49603.9845,2.24457,2.48157,2.24457,4.48907,0,1.96893-.74854,3.44452-2.24457,4.42902-1.49707.9823-3.63861,1.47559-6.42688,1.47559h-11.31482v-11.86926h11.31482ZM415.72319,243.87549c-1.599.9845-3.89606,1.47565-6.888,1.47565h-12.91382v-12.42053h12.91382c2.99194,0,5.289.50189,6.888,1.50568,1.59894,1.00592,2.39783,2.57373,2.39783,4.70569,0,2.17267-.79889,3.75122-2.39783,4.73352Z" style="fill: #0a2740;"/>
      <path d="M454.03343,233.91297c1.96783-1.88531,3.46387-3.58612,4.48907-5.10248s1.72223-2.96198,2.09119-4.33679c.3689-1.37262.55334-2.75604.55334-4.15015,0-2.54156-.62524-4.73572-1.87561-6.5802-1.25043-1.84454-3.03381-3.26868-5.35022-4.2746-2.31635-1.00378-5.03278-1.50568-8.14807-1.50568-3.526,0-6.7132.62628-9.56256,1.87457-2.84937,1.25256-5.11426,3.00488-6.79468,5.25903l5.59576,4.30463c1.23004-1.51642,2.69495-2.64453,4.39679-3.38239,1.70087-.73779,3.5979-1.10669,5.68799-1.10669,2.62421,0,4.61243.5426,5.96576,1.63007,1.35229,1.08527,2.02899,2.6123,2.02899,4.58124,0,.77856-.11371,1.60858-.33783,2.49011-.22626.88153-.68738,1.83594-1.38336,2.85901-.69812,1.02521-1.7641,2.21344-3.19788,3.56677l-17.09619,16.23608v5.34912h31.73224v-6.76465h-20.31946l11.52472-10.94702Z" style="fill: #0a2740;"/>
      <path d="M502.4918,229.82496c-.49542-.22675-1.00867-.42206-1.53699-.59058,1.64984-.8714,2.9892-2.06085,3.99493-3.59174,1.06812-1.61932,1.59998-3.57538,1.59998-5.87244,0-3.40167-1.3512-6.11908-4.05792-8.14807s-6.64026-3.04346-11.80817-3.04346h-20.17065v43.04596h21.4007c5.57648,0,9.78027-1.02521,12.60712-3.07562,2.83112-2.04828,4.24237-4.91803,4.24237-8.60919,0-2.49872-.56195-4.58984-1.69006-6.27136-1.12817-1.68152-2.65527-2.96198-4.5813-3.84351ZM489.82249,214.85004c2.78827,0,4.93091.49329,6.42798,1.47559,1.49707.9845,2.24347,2.48157,2.24347,4.48907,0,1.96893-.7464,3.44452-2.24347,4.42902-1.49707.9823-3.63971,1.47559-6.42798,1.47559h-11.31482v-11.86926h11.31482ZM498.30949,243.87549c-1.60004.9845-3.89496,1.47565-6.88696,1.47565h-12.91486v-12.42053h12.91486c2.992,0,5.28693.50189,6.88696,1.50568,1.59998,1.00592,2.39783,2.57373,2.39783,4.70569,0,2.17267-.79785,3.75122-2.39783,4.73352Z" style="fill: #0a2740;"/>
      <path d="M565.40074,211.28327c-3.52606-1.80377-7.62476-2.70459-12.29828-2.70459h-18.81842v43.04596h18.81842c4.67352,0,8.77222-.90082,12.29828-2.70673,3.526-1.80164,6.2735-4.31317,8.2403-7.53253,1.96887-3.21716,2.95337-6.97913,2.95337-11.28375,0-4.34534-.9845-8.11804-2.95337-11.31592-1.9668-3.19788-4.71429-5.69653-8.2403-7.50244ZM566.59965,237.84864c-1.29114,2.21558-3.12494,3.93573-5.50354,5.16681-2.3786,1.22894-5.16467,1.84454-8.36255,1.84454h-10.45374v-29.51666h10.45374c3.19788,0,5.98395.6134,8.36255,1.84454,2.3786,1.22894,4.2124,2.94049,5.50354,5.13464,1.29114,2.19409,1.93677,4.78717,1.93677,7.77911,0,2.95123-.64563,5.53357-1.93677,7.74701Z" style="fill: #0a2740;"/>
      <rect x="584.33922" y="218.78571" width="7.68695" height="32.83893" style="fill: #0a2740;"/>
      <path d="M588.21275,204.14966c-1.43488,0-2.61237.44183-3.53467,1.32336-.92224.88147-1.38336,1.97748-1.38336,3.2901,0,1.26971.46112,2.35712,1.38336,3.25793.9223.90295,2.09979,1.35333,3.53467,1.35333,1.47772,0,2.66595-.46112,3.56677-1.38336.90295-.92224,1.35333-2.06116,1.35333-3.41235,0-1.27185-.46112-2.32709-1.38336-3.16785s-2.10193-1.26117-3.53674-1.26117Z" style="fill: #0a2740;"/>
      <path d="M623.11278,234.74512c-1.20966-.63702-2.53296-1.13885-3.96783-1.50775-1.43488-.36896-2.88049-.64563-4.33466-.83008-1.4563-.18445-2.77747-.42035-3.9657-.70776-1.19037-.28528-2.15338-.6756-2.89117-1.16675-.73785-.49335-1.10675-1.23114-1.10675-2.21558,0-1.06598.56195-1.94531,1.69012-2.64453,1.12817-.69495,2.86115-1.04456,5.19684-1.04456,1.55713,0,3.12494.1759,4.70569.52338,1.57642.34741,3.14423.99304,4.70349,1.93671l2.95123-5.84241c-1.47559-.90082-3.34155-1.59784-5.59576-2.09119-2.25415-.49115-4.48901-.73779-6.70245-.73779-2.95123,0-5.50354.42041-7.65692,1.26117-2.15125.84076-3.82202,2.02893-5.01239,3.56677-1.18823,1.53784-1.78229,3.35016-1.78229,5.44135,0,1.88739.3689,3.40375,1.10669,4.55127.73779,1.14746,1.70081,2.0611,2.89117,2.73676,1.18823.6756,2.5094,1.19031,3.9657,1.53778,1.45422.34747,2.91052.62415,4.36682.83002,1.45416.20593,2.77539.43115,3.9657.67566,1.18823.24664,2.15125.6048,2.89124,1.07666.73779.47186,1.10669,1.1582,1.10669,2.06116,0,1.10669-.5448,1.98822-1.63007,2.6424-1.0874.65631-2.83966.98444-5.25903.98444-2.05042,0-4.09869-.3067-6.14911-.92224-2.05042-.6156-3.81342-1.3941-5.28906-2.33569l-2.95123,5.84027c1.47565,1.02521,3.47461,1.89813,5.99683,2.6145,2.52014.71637,5.15399,1.07666,7.90143,1.07666,3.07562,0,5.71802-.42249,7.93359-1.26111,2.21344-.84076,3.92499-2.01825,5.13464-3.53674,1.20752-1.51642,1.81451-3.29871,1.81451-5.34912,0-1.84454-.3689-3.34161-1.10675-4.48907-.73993-1.14746-1.71368-2.03967-2.9212-2.67456Z" style="fill: #0a2740;"/>
      <path d="M647.0637,245.72004c-1.43488,0-2.55231-.42896-3.35016-1.29114-.80005-.86011-1.19897-2.06976-1.19897-3.62689v-15.86713h8.79364v-6.14917h-8.79364v-7.2558h-7.68695v7.2558h-5.41345v6.14917h5.41345v16.05157c0,3.64832.98236,6.40649,2.95123,8.27032,1.9668,1.86597,4.755,2.79895,8.36255,2.79895,1.39417,0,2.7475-.18445,4.06012-.55334,1.31049-.3689,2.41718-.92224,3.32013-1.66003l-2.15338-5.47351c-1.14746.90082-2.58234,1.3512-4.30457,1.3512Z" style="fill: #0a2740;"/>
      <path d="M667.17326,223.599v-4.81329h-7.31805v32.83893h7.68695v-15.92725c0-3.36084.86218-5.89386,2.58234-7.59467,1.72229-1.70087,4.03864-2.55231,6.9491-2.55231.28741,0,.57483.01068.86224.03003.28528.02142.59412.07294.92224.15442v-7.31805c-3.1571,0-5.79095.57483-7.90356,1.72229-1.57422.8559-2.83411,2.01056-3.78125,3.4599Z" style="fill: #0a2740;"/>
      <rect x="685.37614" y="218.78571" width="7.68689" height="32.83893" style="fill: #0a2740;"/>
      <path d="M689.24962,204.14966c-1.43488,0-2.61237.44183-3.53461,1.32336-.9223.88147-1.38342,1.97748-1.38342,3.2901,0,1.26971.46112,2.35712,1.38342,3.25793.92224.90295,2.09973,1.35333,3.53461,1.35333,1.47772,0,2.66595-.46112,3.56677-1.38336.90295-.92224,1.35339-2.06116,1.35339-3.41235,0-1.27185-.46118-2.32709-1.38342-3.16785s-2.10187-1.26117-3.53674-1.26117Z" style="fill: #0a2740;"/>
      <path d="M729.92991,220.508c-2.48157-1.3941-5.34058-2.09119-8.57922-2.09119-2.66595,0-5.09387.60486-7.28796,1.81451-1.21588.67096-2.28864,1.5412-3.22791,2.59662v-16.83374h-7.68695v45.63043h7.31799v-4.3476c.97852,1.20667,2.12488,2.18713,3.44458,2.9342,2.17267,1.22894,4.65204,1.84448,7.44025,1.84448,3.23865,0,6.09766-.70776,8.57922-2.12115,2.47937-1.41559,4.44824-3.37378,5.90247-5.87463,1.4563-2.49866,2.18335-5.45203,2.18335-8.8537,0-3.40375-.72705-6.35498-2.18335-8.85583-1.45422-2.50079-3.4231-4.4483-5.90247-5.84241ZM728.91539,240.67762c-.86218,1.55927-2.02039,2.7475-3.47455,3.56677-1.4563.82147-3.10565,1.23114-4.9502,1.23114-1.84668,0-3.50671-.40967-4.98236-1.23114-1.47559-.81927-2.64453-2.00751-3.50458-3.56677-.86218-1.55713-1.29114-3.38232-1.29114-5.47137,0-2.1319.42896-3.96783,1.29114-5.50568.86005-1.53564,2.02899-2.71527,3.50458-3.53461,1.47565-.81934,3.13568-1.23108,4.98236-1.23108,1.84454,0,3.4939.41174,4.9502,1.23108,1.45416.81934,2.61237,1.99896,3.47455,3.53461.86005,1.53784,1.2912,3.37378,1.2912,5.50568,0,2.08905-.43115,3.91425-1.2912,5.47137Z" style="fill: #0a2740;"/>
      <path d="M769.44127,235.39069c0,2.17267-.37964,3.99579-1.13892,5.47137-.75922,1.47778-1.80377,2.58447-3.13568,3.32233-1.33405.73779-2.90192,1.10669-4.70569,1.10669-2.45789,0-4.35608-.72711-5.68799-2.18341-1.33191-1.45416-1.9989-3.659-1.9989-6.61023v-17.71173h-7.68695v18.75623c0,3.28156.59412,5.99683,1.78448,8.14807,1.18817,2.15338,2.84827,3.75122,4.98016,4.79791,2.13196,1.04449,4.59204,1.56781,7.38025,1.56781,2.54156,0,4.87726-.56409,7.01135-1.6922,1.42377-.75275,2.59924-1.75146,3.56677-2.9541v4.21521h7.31799v-32.83893h-7.68689v16.60498Z" style="fill: #0a2740;"/>
      <path d="M800.49357,245.72004c-1.43488,0-2.55231-.42896-3.35016-1.29114-.80005-.86011-1.19897-2.06976-1.19897-3.62689v-15.86713h8.79364v-6.14917h-8.79364v-7.2558h-7.68695v7.2558h-5.41345v6.14917h5.41345v16.05157c0,3.64832.98236,6.40649,2.95123,8.27032,1.9668,1.86597,4.755,2.79895,8.36255,2.79895,1.39417,0,2.7475-.18445,4.06012-.55334,1.31049-.3689,2.41718-.92224,3.32013-1.66003l-2.15338-5.47351c-1.14746.90082-2.58234,1.3512-4.30457,1.3512Z" style="fill: #0a2740;"/>
      <path d="M836.0092,220.5702c-2.64453-1.43488-5.6687-2.15338-9.07251-2.15338-3.3609,0-6.35498.71851-8.97809,2.15338s-4.69495,3.41235-6.2113,5.9325c-1.51636,2.52228-2.2735,5.42419-2.2735,8.70355,0,3.23865.75714,6.12769,2.2735,8.66925,1.51636,2.54376,3.5882,4.54266,6.2113,5.99689,2.62311,1.4563,5.61719,2.18335,8.97809,2.18335,3.40381,0,6.42798-.72705,9.07251-2.18335,2.64233-1.45422,4.7121-3.45312,6.20917-5.99689,1.49707-2.54156,2.24561-5.4306,2.24561-8.66925,0-3.32227-.74854-6.23273-2.24561-8.73358-1.49707-2.50079-3.56683-4.46759-6.20917-5.90247ZM835.45366,240.67762c-.84076,1.55927-1.99677,2.7475-3.47455,3.56677-1.47565.82147-3.15717,1.23114-5.04242,1.23114-1.84448,0-3.49384-.40967-4.9502-1.23114-1.45416-.81927-2.6123-2.00751-3.47455-3.56677-.86005-1.55713-1.29114-3.38232-1.29114-5.47137,0-2.1319.43109-3.96783,1.29114-5.50568.86224-1.53564,2.02039-2.71527,3.47455-3.53461,1.45636-.81934,3.12714-1.23108,5.01239-1.23108,1.84454,0,3.50458.41174,4.98022,1.23108,1.47778.81934,2.63379,1.99896,3.47455,3.53461.84076,1.53784,1.26117,3.37378,1.26117,5.50568,0,2.08905-.42041,3.91425-1.26117,5.47137Z" style="fill: #0a2740;"/>
      <path d="M859.16221,223.599v-4.81329h-7.31805v32.83893h7.68695v-15.92725c0-3.36084.86218-5.89386,2.58234-7.59467,1.72229-1.70087,4.03864-2.55231,6.9491-2.55231.28741,0,.57483.01068.86224.03003.28522.02142.59412.07294.92224.15442v-7.31805c-3.1571,0-5.79095.57483-7.90356,1.72229-1.57422.8559-2.83411,2.01056-3.78125,3.4599Z" style="fill: #0a2740;"/>
      <path d="M932.09373,214.26667c-2.08905-1.98822-4.54053-3.5368-7.34808-4.64349-2.8075-1.10669-5.89386-1.6601-9.25476-1.6601-3.32013,0-6.39575.55341-9.22473,1.6601s-5.28906,2.65527-7.38025,4.64349c-2.08905,1.98822-3.71051,4.32605-4.85797,7.00916-1.14746,2.68744-1.72009,5.62793-1.72009,8.82581s.57263,6.14056,1.72009,8.82373c1.14746,2.68524,2.76892,5.02307,4.85797,7.01129,2.09119,1.98822,4.55127,3.53461,7.38025,4.64349,2.82898,1.10669,5.92389,1.66003,9.28693,1.66003,3.32013,0,6.38507-.55334,9.19257-1.66003,2.80756-1.10889,5.25903-2.64453,7.34808-4.61346,2.09119-1.9668,3.71051-4.30457,4.85797-7.00916,1.14746-2.70673,1.72223-5.65796,1.72223-8.8559s-.57477-6.13837-1.72223-8.82581c-1.14746-2.68311-2.76678-5.02094-4.85797-7.00916ZM929.48137,236.15858c-.75928,1.8252-1.81451,3.42303-3.16785,4.79572-1.35339,1.37482-2.95123,2.43005-4.79578,3.16785-1.84448.73785-3.85419,1.10675-6.02686,1.10675s-4.18237-.3689-6.02686-1.10675c-1.84454-.73779-3.44452-1.79303-4.79578-3.16785-1.35333-1.37268-2.40857-2.98126-3.16785-4.82574-.75928-1.84668-1.13672-3.85419-1.13672-6.02692,0-2.21338.37744-4.23376,1.13672-6.05688.75928-1.8252,1.82306-3.4231,3.19788-4.79791,1.37268-1.37262,2.97272-2.42786,4.79578-3.16571,1.8252-.73779,3.82416-1.10883,5.99683-1.10883s4.18237.37103,6.02686,1.10883c1.84454.73785,3.44238,1.79309,4.79578,3.16571,1.35333,1.37482,2.40857,2.97272,3.16785,4.79791.75714,1.82312,1.13672,3.84351,1.13672,6.05688s-.37958,4.23383-1.13672,6.05695Z" style="fill: #0a2740;"/>
      <path d="M972.89628,230.34614c-1.49707-.86005-3.15717-1.55707-4.98022-2.08899-1.82526-.53406-3.659-1.01453-5.50354-1.44562s-3.51532-.87079-5.01239-1.3233c-1.49707-.45044-2.70673-1.07458-3.62897-1.87457-.9223-.79999-1.38342-1.85522-1.38342-3.16785,0-1.10669.31744-2.09119.95447-2.95123.63483-.86005,1.63861-1.55713,3.01343-2.09119,1.37268-.53192,3.16571-.79999,5.37915-.79999,1.88525,0,3.85419.27667,5.9046.83215,2.05042.55334,4.0365,1.40485,5.96466,2.55017l2.52228-6.20917c-1.88745-1.23114-4.10083-2.17267-6.64246-2.82898-2.54156-.65631-5.10455-.9845-7.68689-.9845-3.93573,0-7.18506.58344-9.74597,1.75232-2.56299,1.16895-4.46973,2.72601-5.72015,4.67352-1.25043,1.94745-1.87457,4.09009-1.87457,6.42578,0,2.29706.46973,4.18237,1.41345,5.65796.94373,1.47565,2.16193,2.65527,3.659,3.53674,1.49707.88153,3.15717,1.5979,4.98022,2.15125,1.8252.55334,3.65045,1.03595,5.47351,1.44562,1.8252.40961,3.48529.85144,4.98236,1.3233,1.49493.47186,2.71527,1.10675,3.659,1.9046.94159.79999,1.41345,1.85522,1.41345,3.16785,0,1.06598-.32819,2.02039-.9845,2.85901-.65631.84076-1.68152,1.50781-3.07349,1.99896-1.3941.49115-3.2193.73779-5.47351.73779-2.66595,0-5.26758-.45038-7.8092-1.35339-2.5437-.90076-4.67346-2.02893-6.39575-3.38232l-2.76678,6.2113c1.80164,1.51855,4.24243,2.75824,7.31592,3.72125,3.07562.96301,6.29279,1.44556,9.65582,1.44556,3.93573,0,7.1958-.58551,9.77814-1.75226,2.58234-1.16895,4.49762-2.72601,5.75018-4.67566,1.25043-1.94531,1.87451-4.06653,1.87451-6.36359,0-2.25421-.46112-4.12018-1.38336-5.59576-.92224-1.47565-2.1319-2.64453-3.62897-3.50677Z" style="fill: #0a2740;"/>
      <path d="M493.36357,101.52027c-5.2558-3.21075-11.06177-5.76733-17.41461-7.66656-6.35181-1.896-12.70361-3.57642-19.05652-5.03809-6.35181-1.4574-12.15668-2.91907-17.41357-4.38074-5.2569-1.4574-9.4939-3.3952-12.70361-5.80487-3.21393-2.40863-4.81934-5.58508-4.81934-9.52826,0-3.35663.948-6.31427,2.84723-8.87085,1.896-2.55341,5.03809-4.63385,9.41882-6.24243,4.38074-1.60541,10.00122-2.40967,16.8667-2.40967,6.86224,0,13.8714.98553,21.02753,2.95764,7.15289,1.97107,14.30896,5.00378,21.46613,9.08966l10.95135-26.94183c-7.15503-4.52441-15.4093-7.91962-24.75092-10.18561-9.34705-2.26172-18.83771-3.39417-28.47534-3.39417-14.45697,0-26.46997,2.15552-36.03253,6.46124-9.56573,4.30884-16.72186,10.07623-21.46509,17.30414-4.7475,7.22797-7.11853,15.22266-7.11853,23.98523,0,8.17914,1.64185,14.89453,4.92761,20.15143,3.28583,5.25684,7.55719,9.4939,12.81409,12.70355,5.2569,3.21399,11.06177,5.84247,17.41357,7.88538,6.35181,2.04718,12.70465,3.76196,19.05646,5.14746,6.35181,1.38983,12.15668,2.84833,17.41357,4.38074,5.2569,1.53357,9.49072,3.50464,12.70471,5.91431,3.20966,2.40967,4.81824,5.66113,4.81824,9.74701,0,3.21393-1.02307,6.06116-3.06598,8.54266-2.04718,2.48474-5.22363,4.41827-9.5282,5.80493-4.3089,1.38977-9.96686,2.08044-16.97607,2.08044-9.19897,0-18.28967-1.49493-27.26996-4.49017-8.98132-2.99091-16.75726-6.82471-23.32782-11.49927l-12.0473,26.72412c6.86224,5.2569,15.91437,9.52716,27.16058,12.81299,11.24298,3.28583,22.99969,4.92871,35.26575,4.92871,14.60071,0,26.68549-2.19196,36.25128-6.57166,9.5647-4.38177,16.75836-10.14697,21.57556-17.3042,4.8172-7.15393,7.22791-15.03925,7.22791-23.65704,0-8.02899-1.64288-14.67572-4.92871-19.93262s-7.55396-9.48962-12.81299-12.70361Z" style="fill: #0a2740;"/>
      <polygon points="568.05168 179.05988 603.53727 179.05988 603.53727 124.77112 663.11534 25.73298 628.28819 25.73298 587.2415 93.79725 546.36784 25.73298 508.69243 25.73298 568.05168 124.40748 568.05168 179.05988" style="fill: #0a2740;"/>
      <polygon points="708.46049 85.9986 784.90519 179.05988 814.03575 179.05988 814.03575 25.73298 778.98985 25.73298 778.98985 118.75452 702.76396 25.73298 673.41246 25.73298 673.41246 179.05988 708.46049 179.05988 708.46049 85.9986" style="fill: #0a2740;"/>
      <path d="M962.76213,179.05988h37.23785l-68.56042-153.3269h-35.0459l-68.33954,153.3269h36.36066l13.66321-32.85608h71.07404l13.61011,32.85608ZM889.28178,119.26203l24.4024-58.68066,24.30756,58.68066h-48.70996Z" style="fill: #0a2740;"/>
    </g>
  </g>
</svg>